<svg xmlns="http://www.w3.org/2000/svg" viewBox="0 0 149.28 170.19"><title>Ресурс 1</title><g id="Слой_2" data-name="Слой 2"><g id="Слой_1-2" data-name="Слой 1"><path d="M149.28,56.14v58a1.6,1.6,0,0,1-1.6-.75,7.41,7.41,0,0,1-.88-3.84c0-17.09-.4-34.19.21-51.28a5.17,5.17,0,0,1,.69-1.72A1.16,1.16,0,0,1,149.28,56.14Z" style="fill:#f1f3f6"/><path d="M148.42,114.09l.86.06v14l-1.1,0a3.57,3.57,0,0,1-.93-1.46c-.42-4-1-8,.51-12Z" style="fill:#f9f2f2"/><path d="M149.28,56.14h-.34l-.34,0c-2.93-4.29-2.64-8.64-.24-13h.92Z" style="fill:#fafafa"/><path d="M.38,114.11v-32c.92-6.78.21-13.59.41-20.39.14-4.93.81-5.77,5.83-5.89a103.65,103.65,0,0,1,18.9.77,12,12,0,0,1,4.21,1.43c13.63,8,27.66,15.31,41.15,23.56a8.84,8.84,0,0,1,3.32,3,2.07,2.07,0,0,1,.12,1.58C68,91.64,60.22,94.78,53.09,99c-6.87,4-13.87,7.86-20.66,12a22.25,22.25,0,0,1-12.68,3.55c-5.46-.15-11-.58-16.4.42A3.35,3.35,0,0,1,.38,114.11Z" style="fill:#003a74"/><path d="M74.28,170l-1,.17Q40.15,151.06,7,131.92c-2-1.15-3.86-2.47-5.79-3.71a2.06,2.06,0,0,1,.92-2.57c7.44-4.37,14.13-10.21,22.94-12,15-2.22,30.13-.71,45.19-1a5.88,5.88,0,0,1,4.17,1.39c1.65,2.15,1.41,4.7,1.42,7.16q.07,20.86,0,41.72C75.87,165.41,76.14,168,74.28,170Z" style="fill:#bd0d15"/><path d="M75.28,0,133,34q7.06,4.16,14.1,8.35A2.2,2.2,0,0,1,146,44.89c-7.22,4.59-14.25,9.52-22.4,12.46-15,.4-29.93.12-44.89.15a6.92,6.92,0,0,1-3.85-.81L74.24,56c0-17,0-33.92.08-50.88C74.32,3.4,73.51,1.42,75.28,0Z" style="fill:#939393"/><path d="M74.24,85.12c-15.5-8.84-31-17.61-46.43-26.61a9.39,9.39,0,0,0-5.07-1.37c-5.15,0-10.32.24-15.45-.07C2.79,56.8.86,58.19,1.21,62.95s.11,9.63,0,14.45c0,1.6.53,3.36-.88,4.72V56.36C6.36,53,12.76,54.82,19,55a14.43,14.43,0,0,1,4.28,1h51a.33.33,0,0,0,.06.48,3.64,3.64,0,0,1,1,1.52c.49,8.83,1.26,17.67-.43,26.48Z" style="fill:#00407f"/><path d="M23.28,56,.38,56.36c0-3.31,0-6.62-.12-9.92-.13-3.06,1.09-3.5,3.5-2.06Z" style="fill:#e7e7e7"/><path d="M23.27,114.29c-6.51,3.87-13,7.76-19.55,11.6a5,5,0,0,0-2.48,2.31c-2.32-4.57-.64-9.39-.86-14.09l3-.19C10,113.71,16.65,113,23.27,114.29Z" style="fill:#d20e16"/><path d="M125.31,56c7.17-4.73,15.17-8.11,21.84-13.62l1.2.76.24,13-.23.15-.25-.12C140.49,58.51,132.89,58.91,125.31,56Z" style="fill:#a8a8a8"/><path d="M74.28,170l0-55.74.65-.7a9.91,9.91,0,0,1,5.33-1c14,0,27.94-.23,41.9.15a8.64,8.64,0,0,1,3.36.51c6.18,3.71,12.57,7.08,18.68,10.92,1.39.87,2.89,1.57,3.87,3a1.24,1.24,0,0,1,.07,1q-34.73,20-69.48,40C77.33,168.92,76.17,170.39,74.28,170Z" style="fill:#aa0c11"/><path d="M126.27,114.3l-3.05-.36c-5.84-1.63-10.79-5-15.88-8.12-10.79-6.52-22-12.25-32.64-19.08l-.42-.59,0-1,.08,0c.77-1.28,1.47-2.63,2.9-3.34,13.1-6.57,25.18-14.92,38-21.93,1.8-1,3.66-1.88,5.81-1.66-13.82.53-27.67.22-41.51.28-1.83,0-3.7,0-5.18-1.34q0-.34-.06-.69l45.07-.31c2,0,4-.1,5.94-.16l22.8.19.31,57.9-.31,0C140.85,116.85,133.57,116.37,126.27,114.3Z" style="fill:#002a54"/><path d="M126.27,114.3l21.84-.17q0,6.51,0,13A113.76,113.76,0,0,1,126.27,114.3Z" style="fill:#990b0e"/><path d="M23.27,114.29l-19.93-.36c5.17-1.75,10.52-.83,15.73-.65s9.49-1.54,13.88-4.16C45.37,101.72,58,94.66,70.58,87.52a23.87,23.87,0,0,1,3.69-1.37h0a6.66,6.66,0,0,1,1.51,4.57c.12,6.24.13,12.47,0,18.71,0,1.65-.23,3.3-1.59,4.51l.11.36Z" style="fill:#003569"/><path d="M74.35,57.16h48.57l-48.61,28Q74.33,71.15,74.35,57.16Z" style="fill:#01244a"/><path d="M36.52,57.33H69.2V58H36.5Z" style="fill:#013f7c"/><path d="M74.21,113.92q0-13.89.08-27.79C80.88,88,86.08,92.48,92,95.52c9,4.58,17.19,10.66,26.41,14.9,1.75.81,3.18,2.32,4.75,3.51Z" style="fill:#022e5e"/><line x1="1.1" y1="43.59" x2="75.28" style="fill:none"/></g></g></svg>